# xmcd
#
# Track frame offsets:
#  150
#  3071
#  16295
#  32499
#  41307
#  55665
#  70611
#  81812
#  94270
#  111332
#  125009
#  146111
#  152922
#  165479
#  180907
#  193747
#  209040
#  221827
#  240631
#  268264
#
# Disc length: 3805 seconds
#
# Revision: 1
# Processed by: cddbd v1.5.1PL2 Copyright (c) Steve Scherf et al.
# Submitted via: Collectorz.com_Music_Collector 6.9
#
DISCID=150edb14
DTITLE=Highwaymen - The Greek Theatre, La - 4 June 1996
DYEAR=1996
DGENRE=Alt. Country
TTITLE0=Opening
TTITLE1=Highwaymen
TTITLE2=It Is What It Is
TTITLE3=Only Daddy That'll Walk The Line
TTITLE4=Folsom Prison Blues
TTITLE5=Me and Bobby Mcgee
TTITLE6=Blue Eyes Crying In The Rain
TTITLE7=Live Forever
TTITLE8=I've Always Been Crazy
TTITLE9=Ring Of Fire
TTITLE10=Sunday Morning Coming Down
TTITLE11=Band Intros
TTITLE12=Help Me Make It Through The Night
TTITLE13=Still Is Still Movin' To Me
TTITLE14=Everybody Gets Crazy Now And Then
TTITLE15=Will The Wolf Survive
TTITLE16=Get Rhythm
TTITLE17=Shipwrecked In The '80"S
TTITLE18=Undo The Wrong/Wild Ones
TTITLE19=Ain't No Good Chaingang
EXTD=
EXTT0=
EXTT1=
EXTT2=
EXTT3=
EXTT4=
EXTT5=
EXTT6=
EXTT7=
EXTT8=
EXTT9=
EXTT10=
EXTT11=
EXTT12=
EXTT13=
EXTT14=
EXTT15=
EXTT16=
EXTT17=
EXTT18=
EXTT19=
PLAYORDER=
